<?xml version="1.0" encoding="UTF-8" standalone="no"?>
<!-- Created with Inkscape (http://www.inkscape.org/) -->

<svg
   xmlns:dc="http://purl.org/dc/elements/1.1/"
   xmlns:cc="http://creativecommons.org/ns#"
   xmlns:rdf="http://www.w3.org/1999/02/22-rdf-syntax-ns#"
   xmlns:svg="http://www.w3.org/2000/svg"
   xmlns="http://www.w3.org/2000/svg"
   xmlns:sodipodi="http://sodipodi.sourceforge.net/DTD/sodipodi-0.dtd"
   xmlns:inkscape="http://www.inkscape.org/namespaces/inkscape"
   width="744.09448819"
   height="1052.3622047"
   id="svg3846"
   version="1.1"
   inkscape:version="0.47 r22583"
   sodipodi:docname="leikrit.svg">
  <defs
     id="defs3848">
    <inkscape:perspective
       sodipodi:type="inkscape:persp3d"
       inkscape:vp_x="0 : 526.18109 : 1"
       inkscape:vp_y="0 : 1000 : 0"
       inkscape:vp_z="744.09448 : 526.18109 : 1"
       inkscape:persp3d-origin="372.04724 : 350.78739 : 1"
       id="perspective3854" />
    <inkscape:perspective
       id="perspective4378"
       inkscape:persp3d-origin="0.5 : 0.33333333 : 1"
       inkscape:vp_z="1 : 0.5 : 1"
       inkscape:vp_y="0 : 1000 : 0"
       inkscape:vp_x="0 : 0.5 : 1"
       sodipodi:type="inkscape:persp3d" />
    <inkscape:perspective
       id="perspective4402"
       inkscape:persp3d-origin="0.5 : 0.33333333 : 1"
       inkscape:vp_z="1 : 0.5 : 1"
       inkscape:vp_y="0 : 1000 : 0"
       inkscape:vp_x="0 : 0.5 : 1"
       sodipodi:type="inkscape:persp3d" />
    <inkscape:perspective
       id="perspective4429"
       inkscape:persp3d-origin="0.5 : 0.33333333 : 1"
       inkscape:vp_z="1 : 0.5 : 1"
       inkscape:vp_y="0 : 1000 : 0"
       inkscape:vp_x="0 : 0.5 : 1"
       sodipodi:type="inkscape:persp3d" />
    <inkscape:perspective
       id="perspective4453"
       inkscape:persp3d-origin="0.5 : 0.33333333 : 1"
       inkscape:vp_z="1 : 0.5 : 1"
       inkscape:vp_y="0 : 1000 : 0"
       inkscape:vp_x="0 : 0.5 : 1"
       sodipodi:type="inkscape:persp3d" />
    <inkscape:perspective
       id="perspective4453-9"
       inkscape:persp3d-origin="0.5 : 0.33333333 : 1"
       inkscape:vp_z="1 : 0.5 : 1"
       inkscape:vp_y="0 : 1000 : 0"
       inkscape:vp_x="0 : 0.5 : 1"
       sodipodi:type="inkscape:persp3d" />
    <inkscape:perspective
       id="perspective4453-0"
       inkscape:persp3d-origin="0.5 : 0.33333333 : 1"
       inkscape:vp_z="1 : 0.5 : 1"
       inkscape:vp_y="0 : 1000 : 0"
       inkscape:vp_x="0 : 0.5 : 1"
       sodipodi:type="inkscape:persp3d" />
    <inkscape:perspective
       id="perspective4493"
       inkscape:persp3d-origin="0.5 : 0.33333333 : 1"
       inkscape:vp_z="1 : 0.5 : 1"
       inkscape:vp_y="0 : 1000 : 0"
       inkscape:vp_x="0 : 0.5 : 1"
       sodipodi:type="inkscape:persp3d" />
    <inkscape:perspective
       id="perspective4493-2"
       inkscape:persp3d-origin="0.5 : 0.33333333 : 1"
       inkscape:vp_z="1 : 0.5 : 1"
       inkscape:vp_y="0 : 1000 : 0"
       inkscape:vp_x="0 : 0.5 : 1"
       sodipodi:type="inkscape:persp3d" />
    <inkscape:perspective
       id="perspective4493-6"
       inkscape:persp3d-origin="0.5 : 0.33333333 : 1"
       inkscape:vp_z="1 : 0.5 : 1"
       inkscape:vp_y="0 : 1000 : 0"
       inkscape:vp_x="0 : 0.5 : 1"
       sodipodi:type="inkscape:persp3d" />
    <inkscape:perspective
       id="perspective4493-9"
       inkscape:persp3d-origin="0.5 : 0.33333333 : 1"
       inkscape:vp_z="1 : 0.5 : 1"
       inkscape:vp_y="0 : 1000 : 0"
       inkscape:vp_x="0 : 0.5 : 1"
       sodipodi:type="inkscape:persp3d" />
    <inkscape:perspective
       id="perspective4542"
       inkscape:persp3d-origin="0.5 : 0.33333333 : 1"
       inkscape:vp_z="1 : 0.5 : 1"
       inkscape:vp_y="0 : 1000 : 0"
       inkscape:vp_x="0 : 0.5 : 1"
       sodipodi:type="inkscape:persp3d" />
    <inkscape:perspective
       id="perspective4542-2"
       inkscape:persp3d-origin="0.5 : 0.33333333 : 1"
       inkscape:vp_z="1 : 0.5 : 1"
       inkscape:vp_y="0 : 1000 : 0"
       inkscape:vp_x="0 : 0.5 : 1"
       sodipodi:type="inkscape:persp3d" />
    <inkscape:perspective
       id="perspective4542-6"
       inkscape:persp3d-origin="0.5 : 0.33333333 : 1"
       inkscape:vp_z="1 : 0.5 : 1"
       inkscape:vp_y="0 : 1000 : 0"
       inkscape:vp_x="0 : 0.5 : 1"
       sodipodi:type="inkscape:persp3d" />
    <inkscape:perspective
       id="perspective4542-7"
       inkscape:persp3d-origin="0.5 : 0.33333333 : 1"
       inkscape:vp_z="1 : 0.5 : 1"
       inkscape:vp_y="0 : 1000 : 0"
       inkscape:vp_x="0 : 0.5 : 1"
       sodipodi:type="inkscape:persp3d" />
    <inkscape:perspective
       id="perspective4542-9"
       inkscape:persp3d-origin="0.5 : 0.33333333 : 1"
       inkscape:vp_z="1 : 0.5 : 1"
       inkscape:vp_y="0 : 1000 : 0"
       inkscape:vp_x="0 : 0.5 : 1"
       sodipodi:type="inkscape:persp3d" />
    <inkscape:perspective
       id="perspective4600"
       inkscape:persp3d-origin="0.5 : 0.33333333 : 1"
       inkscape:vp_z="1 : 0.5 : 1"
       inkscape:vp_y="0 : 1000 : 0"
       inkscape:vp_x="0 : 0.5 : 1"
       sodipodi:type="inkscape:persp3d" />
    <inkscape:perspective
       id="perspective4600-1"
       inkscape:persp3d-origin="0.5 : 0.33333333 : 1"
       inkscape:vp_z="1 : 0.5 : 1"
       inkscape:vp_y="0 : 1000 : 0"
       inkscape:vp_x="0 : 0.5 : 1"
       sodipodi:type="inkscape:persp3d" />
    <inkscape:perspective
       id="perspective4631"
       inkscape:persp3d-origin="0.5 : 0.33333333 : 1"
       inkscape:vp_z="1 : 0.5 : 1"
       inkscape:vp_y="0 : 1000 : 0"
       inkscape:vp_x="0 : 0.5 : 1"
       sodipodi:type="inkscape:persp3d" />
    <inkscape:perspective
       id="perspective4631-9"
       inkscape:persp3d-origin="0.5 : 0.33333333 : 1"
       inkscape:vp_z="1 : 0.5 : 1"
       inkscape:vp_y="0 : 1000 : 0"
       inkscape:vp_x="0 : 0.5 : 1"
       sodipodi:type="inkscape:persp3d" />
    <inkscape:perspective
       id="perspective4631-7"
       inkscape:persp3d-origin="0.5 : 0.33333333 : 1"
       inkscape:vp_z="1 : 0.5 : 1"
       inkscape:vp_y="0 : 1000 : 0"
       inkscape:vp_x="0 : 0.5 : 1"
       sodipodi:type="inkscape:persp3d" />
    <inkscape:perspective
       id="perspective4631-75"
       inkscape:persp3d-origin="0.5 : 0.33333333 : 1"
       inkscape:vp_z="1 : 0.5 : 1"
       inkscape:vp_y="0 : 1000 : 0"
       inkscape:vp_x="0 : 0.5 : 1"
       sodipodi:type="inkscape:persp3d" />
    <inkscape:perspective
       id="perspective4631-74"
       inkscape:persp3d-origin="0.5 : 0.33333333 : 1"
       inkscape:vp_z="1 : 0.5 : 1"
       inkscape:vp_y="0 : 1000 : 0"
       inkscape:vp_x="0 : 0.5 : 1"
       sodipodi:type="inkscape:persp3d" />
    <inkscape:perspective
       id="perspective4631-1"
       inkscape:persp3d-origin="0.5 : 0.33333333 : 1"
       inkscape:vp_z="1 : 0.5 : 1"
       inkscape:vp_y="0 : 1000 : 0"
       inkscape:vp_x="0 : 0.5 : 1"
       sodipodi:type="inkscape:persp3d" />
    <inkscape:perspective
       id="perspective4631-8"
       inkscape:persp3d-origin="0.5 : 0.33333333 : 1"
       inkscape:vp_z="1 : 0.5 : 1"
       inkscape:vp_y="0 : 1000 : 0"
       inkscape:vp_x="0 : 0.5 : 1"
       sodipodi:type="inkscape:persp3d" />
    <inkscape:perspective
       id="perspective4631-6"
       inkscape:persp3d-origin="0.5 : 0.33333333 : 1"
       inkscape:vp_z="1 : 0.5 : 1"
       inkscape:vp_y="0 : 1000 : 0"
       inkscape:vp_x="0 : 0.5 : 1"
       sodipodi:type="inkscape:persp3d" />
    <inkscape:perspective
       id="perspective4631-0"
       inkscape:persp3d-origin="0.5 : 0.33333333 : 1"
       inkscape:vp_z="1 : 0.5 : 1"
       inkscape:vp_y="0 : 1000 : 0"
       inkscape:vp_x="0 : 0.5 : 1"
       sodipodi:type="inkscape:persp3d" />
    <inkscape:perspective
       id="perspective4631-4"
       inkscape:persp3d-origin="0.5 : 0.33333333 : 1"
       inkscape:vp_z="1 : 0.5 : 1"
       inkscape:vp_y="0 : 1000 : 0"
       inkscape:vp_x="0 : 0.5 : 1"
       sodipodi:type="inkscape:persp3d" />
    <inkscape:perspective
       id="perspective4631-2"
       inkscape:persp3d-origin="0.5 : 0.33333333 : 1"
       inkscape:vp_z="1 : 0.5 : 1"
       inkscape:vp_y="0 : 1000 : 0"
       inkscape:vp_x="0 : 0.5 : 1"
       sodipodi:type="inkscape:persp3d" />
    <inkscape:perspective
       id="perspective4767"
       inkscape:persp3d-origin="0.5 : 0.33333333 : 1"
       inkscape:vp_z="1 : 0.5 : 1"
       inkscape:vp_y="0 : 1000 : 0"
       inkscape:vp_x="0 : 0.5 : 1"
       sodipodi:type="inkscape:persp3d" />
    <inkscape:perspective
       id="perspective4810"
       inkscape:persp3d-origin="0.5 : 0.33333333 : 1"
       inkscape:vp_z="1 : 0.5 : 1"
       inkscape:vp_y="0 : 1000 : 0"
       inkscape:vp_x="0 : 0.5 : 1"
       sodipodi:type="inkscape:persp3d" />
    <inkscape:perspective
       id="perspective4832"
       inkscape:persp3d-origin="0.5 : 0.33333333 : 1"
       inkscape:vp_z="1 : 0.5 : 1"
       inkscape:vp_y="0 : 1000 : 0"
       inkscape:vp_x="0 : 0.5 : 1"
       sodipodi:type="inkscape:persp3d" />
    <inkscape:perspective
       id="perspective4856"
       inkscape:persp3d-origin="0.5 : 0.33333333 : 1"
       inkscape:vp_z="1 : 0.5 : 1"
       inkscape:vp_y="0 : 1000 : 0"
       inkscape:vp_x="0 : 0.5 : 1"
       sodipodi:type="inkscape:persp3d" />
    <inkscape:perspective
       id="perspective5578"
       inkscape:persp3d-origin="0.5 : 0.33333333 : 1"
       inkscape:vp_z="1 : 0.5 : 1"
       inkscape:vp_y="0 : 1000 : 0"
       inkscape:vp_x="0 : 0.5 : 1"
       sodipodi:type="inkscape:persp3d" />
    <inkscape:perspective
       id="perspective5601"
       inkscape:persp3d-origin="0.5 : 0.33333333 : 1"
       inkscape:vp_z="1 : 0.5 : 1"
       inkscape:vp_y="0 : 1000 : 0"
       inkscape:vp_x="0 : 0.5 : 1"
       sodipodi:type="inkscape:persp3d" />
    <inkscape:perspective
       id="perspective5626"
       inkscape:persp3d-origin="0.5 : 0.33333333 : 1"
       inkscape:vp_z="1 : 0.5 : 1"
       inkscape:vp_y="0 : 1000 : 0"
       inkscape:vp_x="0 : 0.5 : 1"
       sodipodi:type="inkscape:persp3d" />
    <inkscape:perspective
       id="perspective5657"
       inkscape:persp3d-origin="0.5 : 0.33333333 : 1"
       inkscape:vp_z="1 : 0.5 : 1"
       inkscape:vp_y="0 : 1000 : 0"
       inkscape:vp_x="0 : 0.5 : 1"
       sodipodi:type="inkscape:persp3d" />
    <inkscape:perspective
       id="perspective5688"
       inkscape:persp3d-origin="0.5 : 0.33333333 : 1"
       inkscape:vp_z="1 : 0.5 : 1"
       inkscape:vp_y="0 : 1000 : 0"
       inkscape:vp_x="0 : 0.5 : 1"
       sodipodi:type="inkscape:persp3d" />
    <inkscape:perspective
       id="perspective2987"
       inkscape:persp3d-origin="0.5 : 0.33333333 : 1"
       inkscape:vp_z="1 : 0.5 : 1"
       inkscape:vp_y="0 : 1000 : 0"
       inkscape:vp_x="0 : 0.5 : 1"
       sodipodi:type="inkscape:persp3d" />
    <inkscape:perspective
       id="perspective3806"
       inkscape:persp3d-origin="0.5 : 0.33333333 : 1"
       inkscape:vp_z="1 : 0.5 : 1"
       inkscape:vp_y="0 : 1000 : 0"
       inkscape:vp_x="0 : 0.5 : 1"
       sodipodi:type="inkscape:persp3d" />
    <inkscape:perspective
       id="perspective3832"
       inkscape:persp3d-origin="0.5 : 0.33333333 : 1"
       inkscape:vp_z="1 : 0.5 : 1"
       inkscape:vp_y="0 : 1000 : 0"
       inkscape:vp_x="0 : 0.5 : 1"
       sodipodi:type="inkscape:persp3d" />
    <inkscape:perspective
       id="perspective3856"
       inkscape:persp3d-origin="0.5 : 0.33333333 : 1"
       inkscape:vp_z="1 : 0.5 : 1"
       inkscape:vp_y="0 : 1000 : 0"
       inkscape:vp_x="0 : 0.5 : 1"
       sodipodi:type="inkscape:persp3d" />
    <inkscape:perspective
       id="perspective3881"
       inkscape:persp3d-origin="0.5 : 0.33333333 : 1"
       inkscape:vp_z="1 : 0.5 : 1"
       inkscape:vp_y="0 : 1000 : 0"
       inkscape:vp_x="0 : 0.5 : 1"
       sodipodi:type="inkscape:persp3d" />
    <inkscape:perspective
       id="perspective3924"
       inkscape:persp3d-origin="0.5 : 0.33333333 : 1"
       inkscape:vp_z="1 : 0.5 : 1"
       inkscape:vp_y="0 : 1000 : 0"
       inkscape:vp_x="0 : 0.5 : 1"
       sodipodi:type="inkscape:persp3d" />
    <inkscape:perspective
       id="perspective3946"
       inkscape:persp3d-origin="0.5 : 0.33333333 : 1"
       inkscape:vp_z="1 : 0.5 : 1"
       inkscape:vp_y="0 : 1000 : 0"
       inkscape:vp_x="0 : 0.5 : 1"
       sodipodi:type="inkscape:persp3d" />
    <inkscape:perspective
       id="perspective3946-8"
       inkscape:persp3d-origin="0.5 : 0.33333333 : 1"
       inkscape:vp_z="1 : 0.5 : 1"
       inkscape:vp_y="0 : 1000 : 0"
       inkscape:vp_x="0 : 0.5 : 1"
       sodipodi:type="inkscape:persp3d" />
    <inkscape:perspective
       id="perspective3946-6"
       inkscape:persp3d-origin="0.5 : 0.33333333 : 1"
       inkscape:vp_z="1 : 0.5 : 1"
       inkscape:vp_y="0 : 1000 : 0"
       inkscape:vp_x="0 : 0.5 : 1"
       sodipodi:type="inkscape:persp3d" />
    <inkscape:perspective
       id="perspective3993"
       inkscape:persp3d-origin="0.5 : 0.33333333 : 1"
       inkscape:vp_z="1 : 0.5 : 1"
       inkscape:vp_y="0 : 1000 : 0"
       inkscape:vp_x="0 : 0.5 : 1"
       sodipodi:type="inkscape:persp3d" />
    <inkscape:perspective
       id="perspective4017"
       inkscape:persp3d-origin="0.5 : 0.33333333 : 1"
       inkscape:vp_z="1 : 0.5 : 1"
       inkscape:vp_y="0 : 1000 : 0"
       inkscape:vp_x="0 : 0.5 : 1"
       sodipodi:type="inkscape:persp3d" />
    <inkscape:perspective
       id="perspective4042"
       inkscape:persp3d-origin="0.5 : 0.33333333 : 1"
       inkscape:vp_z="1 : 0.5 : 1"
       inkscape:vp_y="0 : 1000 : 0"
       inkscape:vp_x="0 : 0.5 : 1"
       sodipodi:type="inkscape:persp3d" />
    <inkscape:perspective
       id="perspective4682"
       inkscape:persp3d-origin="0.5 : 0.33333333 : 1"
       inkscape:vp_z="1 : 0.5 : 1"
       inkscape:vp_y="0 : 1000 : 0"
       inkscape:vp_x="0 : 0.5 : 1"
       sodipodi:type="inkscape:persp3d" />
    <inkscape:perspective
       id="perspective4682-9"
       inkscape:persp3d-origin="0.5 : 0.33333333 : 1"
       inkscape:vp_z="1 : 0.5 : 1"
       inkscape:vp_y="0 : 1000 : 0"
       inkscape:vp_x="0 : 0.5 : 1"
       sodipodi:type="inkscape:persp3d" />
    <inkscape:perspective
       id="perspective4721"
       inkscape:persp3d-origin="0.5 : 0.33333333 : 1"
       inkscape:vp_z="1 : 0.5 : 1"
       inkscape:vp_y="0 : 1000 : 0"
       inkscape:vp_x="0 : 0.5 : 1"
       sodipodi:type="inkscape:persp3d" />
  </defs>
  <sodipodi:namedview
     id="base"
     pagecolor="#ffffff"
     bordercolor="#666666"
     borderopacity="1.0"
     inkscape:pageopacity="0"
     inkscape:pageshadow="2"
     inkscape:zoom="0.35"
     inkscape:cx="667.26651"
     inkscape:cy="344.97014"
     inkscape:document-units="px"
     inkscape:current-layer="layer1"
     showgrid="false"
     inkscape:window-width="1024"
     inkscape:window-height="696"
     inkscape:window-x="0"
     inkscape:window-y="24"
     inkscape:window-maximized="1" />
  <metadata
     id="metadata3851">
    <rdf:RDF>
      <cc:Work
         rdf:about="">
        <dc:format>image/svg+xml</dc:format>
        <dc:type
           rdf:resource="http://purl.org/dc/dcmitype/StillImage" />
        <dc:title></dc:title>
      </cc:Work>
    </rdf:RDF>
  </metadata>
  <g
     inkscape:label="Layer 1"
     inkscape:groupmode="layer"
     id="layer1">
    <g
       id="g4736"
       inkscape:export-filename="/home/tryggvi/Fróði/Copyright/Frodi/media/logo/leikari.png"
       inkscape:export-xdpi="21.678829"
       inkscape:export-ydpi="21.678829">
      <path
         sodipodi:nodetypes="cscccccsccccccscccssccssscccsccccccssccssssssccsccsscsscccccccccc"
         id="path3856"
         d="m 414.44197,152.16072 c -86.45698,1.0952 -155.875,36.50758 -155.875,80 0,34.37587 43.38156,63.68136 104.25,75 -29.36871,-2.56411 -54.95856,20.92238 -76.125,38.09375 l -28.96875,-19.4375 c 0,0 -8.02593,-24.46836 -18.03125,-10.84375 l -11.75,-53.25 c -4.41677,-19.99162 -20.11068,37.16688 -58.21875,19.5625 -34.8954,-16.12025 13.125,31.90625 13.125,31.90625 l 17.4375,8.125 c 0,0 11.00971,-12.86137 17.34375,6.53125 -14.68805,-1.23465 -32.80182,-4.62461 -28.1875,3.875 l 17.78125,32.71875 c 0,0 5.2658,-3.53726 14.59375,-5.3125 0.28965,8.57336 0.23238,18.81865 -0.28125,31.03125 -2.98549,70.98658 -1.66403,39.63654 70,-5.53125 5.09257,4.49253 10.33821,9.7052 15.71875,15.71875 -20.78188,45.44114 -34.8877,103.83597 -39.125,168.65625 -14.2262,-1.09534 -28.04102,-0.79543 -38.8125,0.53125 -49.4469,6.09018 -10.09519,94.97207 24.25,147.5 1.00829,1.54209 1.98501,2.97707 2.9375,4.34375 -1.05956,-0.072 -2.04256,-0.18357 -2.9375,-0.3125 0,0 -101.00476,-16.14991 -119.1875,8.09375 -18.18275,24.24366 12.10628,20.1875 20.1875,20.1875 8.08122,0 124.49234,-4.94018 147.5,-6.0625 20.70813,-1.01015 6.0625,-26.25 6.0625,-26.25 0,0 -8.38417,1.27153 -18.78125,2.46875 0.0427,-0.6679 0.0937,-1.46875 0.0937,-1.46875 0,0 -52.57186,-108.59854 -24.8125,-99.78125 0.74962,0.2381 1.49177,0.46446 2.25,0.6875 0.006,0.41627 -0.007,0.83428 0,1.25 l 3.65625,-0.25 c 29.6505,7.68463 63.95953,4.47007 70.75,-4.75 l 75.1875,-5.0625 43.46875,0 c -14.79885,26.08026 -17.09126,91.2141 1.47321,130 20.23236,42.27053 89.57533,-27.08453 115.83929,-71.53125 1.16443,-1.97057 2.21696,-3.81087 3.21875,-5.59375 0.26172,1.84159 0.51808,3.61134 0.8125,5.59375 0,0 2.72134,12.26431 -3.15625,45.34375 -1.22224,6.87888 -21.10839,-5.14937 -27.09375,5.09375 -15.28906,26.16509 3.92286,16.85038 12,16.59375 10.35714,-0.32906 44.91812,2.17104 48.34375,-2.40625 3.12172,-4.17121 -0.47473,-12.49562 -0.8125,-21.0625 -1.50888,-38.26958 -6.26386,-75.65907 -7.0625,-92.03125 -1.01015,-20.70813 -26.25,-6.0625 -26.25,-6.0625 0,0 -1.70885,1.8054 -0.125,20.5 -5.55192,8.90178 -41.08132,63.29772 -83.34375,67.03125 -10.93563,0.96607 -16.24568,-42.20243 2.0625,-91.46875 l 70.34375,0 c 0,-110.93178 -36.91479,-186.58304 -65.21875,-237.25 -4.63623,-8.29932 32.29361,-21.47259 27.125,-43.875 -4.00592,-17.36296 -33.85932,-20.82658 -55,-21.59375 61.52408,-11.14777 105.46875,-40.63921 105.46875,-75.25 0,-44.18278 -71.63444,-80 -160,-80 -1.38071,0 -2.75267,-0.0174 -4.125,0 l 5e-5,0 z m -164.6875,208.375 c 4.48975,1.21403 9.27679,2.95145 14.3125,5.375 -6.62631,6.46144 -10.71875,10.84375 -10.71875,10.84375 l -3.59375,-16.21875 z m 76.8125,4.25 c -1.07802,1.66223 -2.13238,3.37378 -3.1875,5.09375 l -2.875,-1.90625 c 1.98899,-1.04936 3.99546,-2.13593 6.0625,-3.1875 z"
         style="color:#000000;fill:#000000;fill-opacity:1;fill-rule:nonzero;stroke:#ffffff;stroke-width:5;stroke-miterlimit:4;stroke-opacity:1;stroke-dasharray:none;marker:none;visibility:visible;display:inline;overflow:visible;enable-background:accumulate" />
      <path
         transform="matrix(0.84848485,0,0,0.84848485,123.41991,-178.17888)"
         d="m 314.28571,449.50504 a 37.142857,37.142857 0 1 1 -74.28571,0 37.142857,37.142857 0 1 1 74.28571,0 z"
         sodipodi:ry="37.142857"
         sodipodi:rx="37.142857"
         sodipodi:cy="449.50504"
         sodipodi:cx="277.14285"
         id="path3858"
         style="color:#000000;fill:#ffffff;fill-opacity:1;fill-rule:nonzero;stroke:#000000;stroke-width:20;stroke-miterlimit:4;stroke-opacity:1;stroke-dasharray:none;marker:none;visibility:visible;display:inline;overflow:visible;enable-background:accumulate"
         sodipodi:type="arc" />
      <path
         transform="matrix(0.84848485,0,0,0.84848485,221.99135,-179.60746)"
         d="m 314.28571,449.50504 a 37.142857,37.142857 0 1 1 -74.28571,0 37.142857,37.142857 0 1 1 74.28571,0 z"
         sodipodi:ry="37.142857"
         sodipodi:rx="37.142857"
         sodipodi:cy="449.50504"
         sodipodi:cx="277.14285"
         id="path3858-7"
         style="color:#000000;fill:#ffffff;fill-opacity:1;fill-rule:nonzero;stroke:#000000;stroke-width:20;stroke-miterlimit:4;stroke-opacity:1;stroke-dasharray:none;marker:none;visibility:visible;display:inline;overflow:visible;enable-background:accumulate"
         sodipodi:type="arc" />
      <path
         transform="matrix(0.57573592,0,0,0.57573592,196.83312,-129.00567)"
         d="m 265.71429,586.64789 a 14.285714,14.285714 0 1 1 -28.57143,0 14.285714,14.285714 0 1 1 28.57143,0 z"
         sodipodi:ry="14.285714"
         sodipodi:rx="14.285714"
         sodipodi:cy="586.64789"
         sodipodi:cx="251.42857"
         id="path4392"
         style="color:#000000;fill:#000000;fill-opacity:1;fill-rule:nonzero;stroke:none;stroke-width:20;marker:none;visibility:visible;display:inline;overflow:visible;enable-background:accumulate"
         sodipodi:type="arc" />
      <path
         transform="matrix(0.57573592,0,0,0.57573592,296.17259,-131.14852)"
         d="m 265.71429,586.64789 a 14.285714,14.285714 0 1 1 -28.57143,0 14.285714,14.285714 0 1 1 28.57143,0 z"
         sodipodi:ry="14.285714"
         sodipodi:rx="14.285714"
         sodipodi:cy="586.64789"
         sodipodi:cx="251.42857"
         id="path4392-6"
         style="color:#000000;fill:#000000;fill-opacity:1;fill-rule:nonzero;stroke:none;stroke-width:20;marker:none;visibility:visible;display:inline;overflow:visible;enable-background:accumulate"
         sodipodi:type="arc" />
      <path
         id="path4735"
         d="M 322.85715,207.50504 305.71429,244.6479"
         style="fill:none;stroke:#000000;stroke-width:5;stroke-linecap:butt;stroke-linejoin:miter;stroke-miterlimit:4;stroke-opacity:1;stroke-dasharray:none" />
      <path
         sodipodi:nodetypes="csccccscsc"
         id="path3895"
         d="m 153.09978,187.84962 c -52.16105,0 -94.445808,28.55949 -94.445808,63.77651 0,35.21701 42.284758,63.75789 94.445808,63.75789 2.5982,1.05606 17.55951,-2.67794 13.84584,0 -19.06621,17.30456 36.08481,10.83103 36.08481,10.83103 l 9.62138,20.4524 c 0,0 43.31484,-1.20785 55.34617,-18.05171 9.76537,-13.67151 -15.33746,-45.56383 -25.14212,-57.09551 3.04129,-6.2594 4.68972,-12.94801 4.68972,-19.8941 0,-35.21702 -42.28476,-63.77651 -94.4458,-63.77651 z"
         style="color:#000000;fill:#f36100;fill-opacity:1;fill-rule:nonzero;stroke:#000000;stroke-width:2.97760177000000015;stroke-linecap:round;stroke-linejoin:bevel;stroke-miterlimit:4;stroke-opacity:1;stroke-dasharray:none;stroke-dashoffset:0;marker:none;visibility:visible;display:inline;overflow:visible;enable-background:accumulate" />
      <path
         transform="matrix(0.59552034,0,0,0.59552034,230.70352,117.00131)"
         d="m -50.507626,218.98634 a 33.335033,33.335033 0 1 1 -66.670064,0 33.335033,33.335033 0 1 1 66.670064,0 z"
         sodipodi:ry="33.335033"
         sodipodi:rx="33.335033"
         sodipodi:cy="218.98634"
         sodipodi:cx="-83.842659"
         id="path3897"
         style="color:#000000;fill:#000000;fill-opacity:1;fill-rule:nonzero;stroke:#000000;stroke-width:5;stroke-linecap:round;stroke-linejoin:bevel;stroke-miterlimit:4;stroke-opacity:1;stroke-dasharray:none;stroke-dashoffset:0;marker:none;visibility:visible;display:inline;overflow:visible;enable-background:accumulate"
         sodipodi:type="arc" />
      <path
         transform="matrix(0.59552034,0,0,0.59552034,230.70352,117.00131)"
         d="m -4.0406094,201.81375 a 16.162441,16.162441 0 1 1 -32.3248826,0 16.162441,16.162441 0 1 1 32.3248826,0 z"
         sodipodi:ry="16.162441"
         sodipodi:rx="16.162441"
         sodipodi:cy="201.81375"
         sodipodi:cx="-20.203051"
         id="path3899"
         style="color:#000000;fill:#000000;fill-opacity:1;fill-rule:nonzero;stroke:#000000;stroke-width:5;stroke-linecap:round;stroke-linejoin:bevel;stroke-miterlimit:4;stroke-opacity:1;stroke-dasharray:none;stroke-dashoffset:0;marker:none;visibility:visible;display:inline;overflow:visible;enable-background:accumulate"
         sodipodi:type="arc" />
      <path
         id="path3914"
         d="m 220.47689,279.89672 c 0,0 -19.25012,18.64855 -9.62506,19.85168 9.62506,1.20314 10.82819,-19.25012 9.62506,-19.85168 z"
         style="fill:#000000;fill-opacity:1;stroke:#000000;stroke-width:0.59552032px;stroke-linecap:butt;stroke-linejoin:miter;stroke-opacity:1" />
      <path
         id="path3914-6"
         d="m 223.94191,279.50103 c 0,0 19.59303,7.98845 17.40495,0.64996 -2.18807,-7.33848 -17.35238,-1.7106 -17.40495,-0.64996 z"
         style="fill:#000000;fill-opacity:1;stroke:#000000;stroke-width:0.47014001px;stroke-linecap:butt;stroke-linejoin:miter;stroke-opacity:1" />
      <g
         transform="matrix(0.82010594,0,0,1,-264.71795,131.44888)"
         id="g3714">
        <path
           sodipodi:type="arc"
           style="color:#000000;fill:#ffffff;fill-opacity:1;fill-rule:nonzero;stroke:#000000;stroke-width:2;stroke-linecap:round;stroke-linejoin:bevel;stroke-miterlimit:4;stroke-opacity:1;stroke-dasharray:none;stroke-dashoffset:0;marker:none;visibility:visible;display:inline;overflow:visible;enable-background:accumulate"
           id="path3712"
           sodipodi:cx="801.42859"
           sodipodi:cy="283.79077"
           sodipodi:rx="87.14286"
           sodipodi:ry="87.14286"
           d="m 888.57145,283.79077 c 0,48.12767 -39.01519,87.14286 -87.14286,87.14286 -48.12767,0 -87.14286,-39.01519 -87.14286,-87.14286 0,-48.12767 39.01519,-87.14286 87.14286,-87.14286 48.12767,0 87.14286,39.01519 87.14286,87.14286 z"
           transform="matrix(0.910859,0,0,0.910859,57.139177,36.145689)" />
        <path
           style="fill:#000000;fill-opacity:1;fill-rule:nonzero;stroke:none"
           d="m 784.90967,207.29029 c -47.17874,1.19661 -85.13505,39.88757 -85.13505,87.353 0,48.21884 39.13416,87.353 87.353,87.353 48.21885,0 87.353,-39.13416 87.353,-87.353 0,-48.21885 -39.13415,-87.353 -87.353,-87.353 -0.75342,0 -1.46908,-0.019 -2.21795,0 z m -0.0853,15.0138 c 0.77398,-0.0245 1.52334,0 2.30325,0 39.93125,0 72.33921,32.40795 72.33921,72.3392 -10e-6,39.93124 -32.40796,72.3392 -72.33921,72.3392 -39.93124,0 -72.3392,-32.40796 -72.3392,-72.3392 0,-39.15134 31.18206,-71.1073 70.03595,-72.3392 z"
           id="path1334" />
        <path
           sodipodi:type="arc"
           style="fill:#000000;fill-opacity:1;fill-rule:evenodd;stroke:none"
           id="path2838"
           sodipodi:cx="32.0625"
           sodipodi:cy="15.75"
           sodipodi:rx="4.625"
           sodipodi:ry="4.625"
           d="m 36.6875,15.75 c 0,2.554317 -2.070683,4.625 -4.625,4.625 -2.554317,0 -4.625,-2.070683 -4.625,-4.625 0,-2.554317 2.070683,-4.625 4.625,-4.625 2.554317,0 4.625,2.070683 4.625,4.625 z"
           transform="matrix(2.7297813,0,0,2.7297812,699.60401,207.79679)" />
        <path
           id="path3572"
           style="fill:#000000;fill-opacity:1;fill-rule:evenodd;stroke:none"
           d="m 774.06596,351.12097 26.12332,0 0,-41.98105 7.89728,0 c 0,0 -0.003,-30.00129 0,-34.72312 -0.008,-1.24561 0.11244,-3.7263 -1.69448,-5.53323 -1.80693,-1.80693 -4.2459,-1.69739 -5.53324,-1.69449 -1.28734,0.003 -26.1751,0.003 -27.46244,0 -1.28734,-0.003 -3.72631,-0.11244 -5.53324,1.69449 -1.80693,1.80693 -1.68672,4.28762 -1.69448,5.53323 0.003,4.72183 0,34.72312 0,34.72312 l 7.89728,0 0,41.98105 z"
           sodipodi:nodetypes="ccccssccssccc" />
      </g>
      <rect
         rx="12.12183"
         ry="12.12183"
         transform="scale(-1,1)"
         y="545.76508"
         x="-571.13849"
         height="26.337147"
         width="316.56271"
         id="rect4846-2-6"
         style="color:#000000;fill:#ffffff;fill-opacity:1;fill-rule:nonzero;stroke:#000000;stroke-width:5.58014345;stroke-linecap:butt;stroke-linejoin:miter;stroke-miterlimit:4;stroke-opacity:1;stroke-dasharray:none;stroke-dashoffset:0;marker:none;visibility:visible;display:inline;overflow:visible;enable-background:accumulate" />
      <rect
         y="535.55017"
         x="325.47516"
         height="45.112778"
         width="92.481201"
         id="rect4846"
         style="color:#000000;fill:#ffffff;fill-opacity:1;fill-rule:nonzero;stroke:#000000;stroke-width:3.94736838;stroke-linecap:butt;stroke-linejoin:miter;stroke-miterlimit:4;stroke-opacity:1;stroke-dasharray:none;stroke-dashoffset:0;marker:none;visibility:visible;display:inline;overflow:visible;enable-background:accumulate" />
      <rect
         y="176.43642"
         x="331.80881"
         height="26.217743"
         width="53.973358"
         id="rect3024"
         style="color:#000000;fill:#000000;fill-opacity:1;fill-rule:nonzero;stroke:#000000;stroke-width:1.6190958;stroke-linecap:round;stroke-linejoin:bevel;stroke-miterlimit:4;stroke-opacity:1;stroke-dasharray:none;stroke-dashoffset:0;marker:none;visibility:visible;display:inline;overflow:visible;enable-background:accumulate" />
      <path
         sodipodi:nodetypes="cscssccs"
         id="path4757-9"
         d="M 497.9575,368.39771 C 382.4667,420.25732 335.19369,451.11693 303.72035,411.98212 241.93893,335.16142 195.4983,366.45327 195.4983,366.45327 l -11.71401,-35.77203 c -4.72869,-14.44036 36.99179,1.32648 37.03806,-8.51714 0.1207,-25.67799 41.36192,10.69352 41.36192,10.69352 l 71.86867,54.72382 c 0,0 85.10109,-47.38302 122.04872,-61.81904"
         style="fill:#000000;fill-opacity:1;stroke:#ffffff;stroke-width:5;stroke-linecap:round;stroke-linejoin:round;stroke-miterlimit:4;stroke-opacity:1;stroke-dasharray:none" />
      <rect
         transform="matrix(0.98620682,0.16551767,-0.16551767,0.98620682,0,0)"
         ry="13.108871"
         y="94.352715"
         x="460.77313"
         height="26.217743"
         width="53.973358"
         id="rect3024-2"
         style="color:#000000;fill:#000000;fill-opacity:1;fill-rule:nonzero;stroke:#000000;stroke-width:1.6190958;stroke-linecap:round;stroke-linejoin:bevel;stroke-miterlimit:4;stroke-opacity:1;stroke-dasharray:none;stroke-dashoffset:0;marker:none;visibility:visible;display:inline;overflow:visible;enable-background:accumulate" />
      <path
         sodipodi:nodetypes="csssc"
         id="path4031"
         d="m 391.39993,261.0451 c 0,4.06761 -11.15053,27.04143 -16.83151,17.24993 -4.24914,-7.3236 -26.30541,-9.6109 -26.30541,-13.6785 0,-4.0676 13.46253,-10.22219 24.78273,-10.22219 11.3202,0 18.35419,2.58316 18.35419,6.65076 z"
         style="color:#000000;fill:#ffffff;fill-opacity:1;stroke:#ffffff;stroke-width:4.41204023;stroke-linecap:round;stroke-linejoin:round;stroke-miterlimit:4;stroke-opacity:1;stroke-dashoffset:0;marker:none;visibility:visible;display:inline;overflow:visible;enable-background:accumulate" />
    </g>
  </g>
</svg>
